<svg xmlns="http://www.w3.org/2000/svg" width="336" height="78" viewBox="0 0 336 78"><polygon points="54.26 50.3 72.85 50.3 72.85 44.9 60.54 44.9 60.54 41.27 71.54 41.27 71.54 36.26 60.54 36.26 60.54 32.75 72.69 32.75 72.69 27.39 54.26 27.39 54.26 50.3" fill="#231f20"/><path d="M84.18,47.07A3.91,3.91,0,1,0,80.3,51a3.89,3.89,0,0,0,3.88-3.94" fill="#231f20"/><path d="M10.74,50.69c5.56,0,9.26-2.78,9.26-7.46v-.06c0-4.29-3.27-6-8.51-7.14-3.21-.72-4-1.18-4-2.23v-.06c0-.86.76-1.48,2.3-1.48a11.24,11.24,0,0,1,6.42,2.26L19.38,30A14.41,14.41,0,0,0,10,27c-5.5,0-8.87,3.08-8.87,7.33v.07c0,4.68,3.76,6.06,8.64,7.17,3.15.76,3.9,1.25,3.9,2.23v.07c0,1-.92,1.57-2.65,1.57a11.85,11.85,0,0,1-7.43-2.75L0,46.9a16.07,16.07,0,0,0,10.74,3.79" fill="#231f20"/><path d="M28.66,38.78V32.72h3c2.26,0,3.67,1,3.67,3v.07c0,1.8-1.41,3-3.64,3ZM22.32,50.3h6.34V43.75h3.18c5.67,0,9.82-2.84,9.82-8.28v-.06c0-5-3.73-8-9.49-8H22.32Z" fill="#231f20"/><rect x="43.92" y="27.39" width="6.35" height="22.91" fill="#231f20"/><path d="M93.42,27.4H89.54v9.44H91.8V34.08h1.43c2.33,0,3.84-1.32,3.84-3.38S95.64,27.4,93.42,27.4ZM91.8,29.46h1.45c1,0,1.53.47,1.53,1.31A1.32,1.32,0,0,1,93.29,32H91.8Z" fill="#ed3024"/><polygon points="104.05 27.41 104.05 31.05 100.54 31.05 100.54 27.41 98.28 27.41 98.28 36.84 100.54 36.84 100.54 33.14 104.05 33.14 104.05 36.84 106.31 36.84 106.31 27.41 104.05 27.41" fill="#ed3024"/><path d="M112.85,27.25a4.91,4.91,0,0,0-5,4.9,4.82,4.82,0,0,0,5,4.85,4.91,4.91,0,0,0,5-4.91A4.81,4.81,0,0,0,112.85,27.25Zm0,2.1a2.78,2.78,0,1,1-2.65,2.74A2.64,2.64,0,0,1,112.82,29.35Z" fill="#ed3024"/><polygon points="118.26 27.41 118.26 29.5 121.06 29.5 121.06 36.84 123.32 36.84 123.32 29.5 126.13 29.5 126.13 27.41 118.26 27.41" fill="#ed3024"/><path d="M131.56,27.25a4.91,4.91,0,0,0-5,4.9,4.82,4.82,0,0,0,5,4.85,4.91,4.91,0,0,0,5-4.91A4.81,4.81,0,0,0,131.56,27.25Zm0,2.1a2.78,2.78,0,1,1-2.64,2.74A2.63,2.63,0,0,1,131.53,29.35Z" fill="#ed3024"/><polygon points="144.26 27.41 144.26 32.84 140.15 27.45 140.12 27.41 138.07 27.41 138.07 36.84 140.31 36.84 140.31 31.22 144.56 36.79 144.6 36.84 146.5 36.84 146.5 27.41 144.26 27.41" fill="#ed3024"/><rect x="148.51" y="27.4" width="2.26" height="9.43" fill="#ed3024"/><path d="M159.71,33.77l-.08.08a3.23,3.23,0,0,1-2.34,1,2.63,2.63,0,0,1-2.56-2.81,2.6,2.6,0,0,1,2.56-2.74,3.27,3.27,0,0,1,2.27,1l.09.08,1.44-1.65L161,28.7a5,5,0,0,0-3.72-1.45,4.79,4.79,0,0,0-4.92,4.9A4.74,4.74,0,0,0,157.22,37a4.79,4.79,0,0,0,3.86-1.68l.08-.09Z" fill="#ed3024"/><path d="M166.33,31.1c-1.58-.4-1.9-.59-1.9-1.12s.42-.69,1.07-.69a4.17,4.17,0,0,1,2.33.89l.09.07,1.18-1.71-.08-.07a5.48,5.48,0,0,0-3.5-1.2c-2,0-3.34,1.19-3.34,2.92,0,2,1.36,2.47,3.14,2.92,1.53.39,1.77.64,1.77,1.09s-.45.75-1.21.75a4.16,4.16,0,0,1-2.68-1.09l-.09-.08-1.34,1.61.08.08a6,6,0,0,0,4,1.5c2.16,0,3.5-1.14,3.5-3S168.14,31.57,166.33,31.1Z" fill="#ed3024"/><polygon points="100.72 40.86 98.9 46.82 96.92 40.83 95.01 40.83 93.03 46.82 91.23 40.94 91.21 40.86 88.79 40.86 91.98 50.28 92.01 50.36 93.94 50.36 95.94 44.58 97.94 50.36 99.87 50.36 103.09 40.86 100.72 40.86" fill="#ed3024"/><polygon points="106.5 48.26 106.5 46.56 110.85 46.56 110.85 44.52 106.5 44.52 106.5 42.89 111.44 42.89 111.44 40.86 104.25 40.86 104.25 50.29 111.5 50.29 111.5 48.26 106.5 48.26" fill="#ed3024"/><path d="M117.13,44.56c-1.58-.41-1.9-.59-1.9-1.13s.42-.68,1.06-.68a4.19,4.19,0,0,1,2.33.88l.1.07L119.9,42l-.08-.07a5.47,5.47,0,0,0-3.5-1.19c-2,0-3.34,1.19-3.34,2.91,0,2,1.36,2.47,3.14,2.93,1.52.39,1.77.63,1.77,1.08s-.45.75-1.21.75A4.07,4.07,0,0,1,114,47.31l-.09-.07-1.34,1.61.08.07a6,6,0,0,0,4,1.5c2.16,0,3.5-1.13,3.5-3S118.93,45,117.13,44.56Z" fill="#ed3024"/><polygon points="120.95 40.86 120.95 42.96 123.76 42.96 123.76 50.29 126.02 50.29 126.02 42.96 128.82 42.96 128.82 40.86 120.95 40.86" fill="#ed3024"/></svg>